<svg width="48" height="48" viewBox="0 0 48 48" fill="none" xmlns="http://www.w3.org/2000/svg">
<g clip-path="url(#clip0_1490_5132)">
<path d="M4.05894 23.0373C4.1494 20.8585 4.9355 18.2331 6.06178 16.3525C13.5215 3.89743 34.2748 3.78295 41.7587 16.2292C42.5295 16.4242 43.4787 16.5009 44.2088 16.8229C44.3667 16.8921 45.2051 17.3764 45.3541 17.4821C47.608 19.081 47.6742 22.3793 47.7418 24.8701C47.8386 28.4377 47.6551 32.4631 43.1016 32.9135C42.6582 32.9575 41.3192 32.833 41.0631 32.9726C40.9586 33.0292 39.8374 34.54 39.5851 34.8092C37.167 37.3843 33.969 39.1529 30.6157 40.2662C30.5138 40.3971 31.1317 41.2512 31.2565 41.4298C32.2057 42.7834 34.3003 44.2238 33.3753 46.0038C32.4453 47.7951 30.3507 46.9208 28.9008 46.3925C26.5195 45.5232 24.3129 44.176 22.3686 42.5784C22.0055 42.2802 20.9136 41.1066 20.6486 40.9808C20.1874 40.7619 18.7681 40.6147 18.1336 40.4512C13.7852 39.3253 9.33105 36.5238 6.72939 32.9248C5.31263 30.9649 4.15832 27.5055 4.05894 25.1091C4.03218 24.4512 4.03218 23.6964 4.05894 23.0373ZM23.6796 37.7981C25.9972 38.1831 26.4011 34.8193 24.3982 34.4532C21.9775 34.0117 21.5214 37.4396 23.6796 37.7981ZM8.06589 27.2275C8.33217 31.3159 11.6142 34.4733 15.8365 34.2419C19.4574 34.0444 20.6333 31.541 25.0913 31.8857C27.1528 32.0455 28.4612 33.394 30.2857 33.9136C35.1896 35.3061 39.6221 32.0971 39.9215 27.1382C40.4515 18.3677 34.3462 10.4212 25.2506 9.78844C15.0121 9.07644 7.41866 17.311 8.06589 27.2275Z" fill="black"/>
<path d="M3.77237 16.8228C3.60037 16.8983 2.78114 17.3713 2.62826 17.482C0.389713 19.0947 0.311996 22.2811 0.240648 24.7756C0.170574 27.1708 0.0227804 30.0616 2.05492 31.7485C3.38888 32.8555 5.0388 33.0052 6.72949 32.9247C5.31272 30.9648 4.15842 27.5054 4.05904 25.109C3.89978 24.5014 3.89978 23.6447 4.05904 23.0371C4.1495 20.8571 4.9356 18.233 6.06188 16.3511C5.3777 16.3511 4.39794 16.5461 3.77365 16.8216L3.77237 16.8228Z" fill="black"/>
<path d="M44.2082 6.18292C44.4477 6.21815 45.1128 6.21815 45.3523 6.18292C46.5703 6.00681 47.7221 4.69602 47.8304 3.49844C48.1438 0.0491232 43.3979 -1.13587 41.9977 1.88071C41.2014 3.59531 42.2933 5.90617 44.2082 6.18167V6.18292Z" fill="black"/>
<path d="M2.62813 6.18336C2.86766 6.21858 3.53272 6.21858 3.77225 6.18336C4.99026 6.00724 6.14202 4.69771 6.25031 3.49887C6.56374 0.0495541 1.81782 -1.13418 0.416346 1.88114C-0.379949 3.59574 0.711927 5.9066 2.62686 6.1821L2.62813 6.18336Z" fill="black"/>
<path d="M44.2089 6.18311V16.8229C44.3656 16.8921 45.204 17.3764 45.353 17.4821V6.18311C45.1135 6.21833 44.4484 6.21833 44.2089 6.18311Z" fill="black"/>
<path d="M2.62786 6.18311V17.4821C2.78202 17.3714 3.59997 16.8984 3.77197 16.8229V6.18311C3.53245 6.21833 2.86738 6.21833 2.62786 6.18311Z" fill="black"/>
<path d="M4.05908 25.109C4.03233 24.4498 4.03233 23.6963 4.05908 23.0371C3.89982 23.6447 3.89982 24.5014 4.05908 25.109Z" fill="black"/>
<path d="M30.8143 19.592C27.2392 19.5228 27.2392 24.9861 30.8359 24.9685C34.2135 24.9521 34.3982 19.6611 30.8143 19.592Z" fill="black"/>
<path d="M17.2786 19.5918C14.3316 19.5377 13.4296 23.6488 16.2007 24.7319C20.1809 26.2879 21.4384 19.6673 17.2786 19.5918Z" fill="black"/>
</g>
<defs>
<clipPath id="clip0_1490_5132">
<rect width="47.6923" height="46.9231" fill="white" transform="matrix(-1 0 0 1 47.8462 0.153809)"/>
</clipPath>
</defs>
</svg>
