<svg width="29" height="29" viewBox="0 0 29 29" fill="none" xmlns="http://www.w3.org/2000/svg">
<path d="M28.5 14.5C28.5 21.6641 23.0859 27.5703 16.1953 28.4453V18.8203H19.9688L20.7344 14.5H16.1953V13.0234C16.1953 10.7266 17.0703 9.85156 19.3672 9.85156C20.0781 9.85156 20.625 9.90625 20.9531 9.90625V6.07812C20.3516 5.85938 18.8203 5.69531 17.9453 5.69531C13.2422 5.69531 11.1094 7.9375 11.1094 12.6953V14.5H8.21094V18.8203H11.1094V28.1172C4.98438 26.5859 0.5 21.0625 0.5 14.5C0.5 6.78906 6.73438 0.5 14.5 0.5C22.2109 0.5 28.5 6.78906 28.5 14.5Z" fill="#DCFC5A"/>
</svg>
