<svg width="29" height="21" viewBox="0 0 29 21" fill="none" xmlns="http://www.w3.org/2000/svg">
<path d="M27.9531 6.94531C28.1719 6.78125 28.5 6.94531 28.5 7.21875V18.375C28.5 19.8516 27.2969 21 25.875 21H3.125C1.64844 21 0.5 19.8516 0.5 18.375V7.21875C0.5 6.94531 0.773438 6.78125 0.992188 6.94531C2.25 7.92969 3.83594 9.13281 9.41406 13.1797C10.5625 14 12.5312 15.8047 14.5 15.8047C16.4141 15.8047 18.4375 14 19.5312 13.1797C25.1094 9.13281 26.6953 7.92969 27.9531 6.94531ZM14.5 14C13.1875 14.0547 11.3828 12.4141 10.4531 11.7578C3.17969 6.50781 2.63281 6.01562 0.992188 4.70312C0.664062 4.48438 0.5 4.10156 0.5 3.66406V2.625C0.5 1.20312 1.64844 0 3.125 0H25.875C27.2969 0 28.5 1.20312 28.5 2.625V3.66406C28.5 4.10156 28.2812 4.48438 27.9531 4.70312C26.3125 6.01562 25.7656 6.50781 18.4922 11.7578C17.5625 12.4141 15.7578 14.0547 14.5 14Z" fill="#DCFC5A"/>
</svg>
