<svg width="29" height="29" viewBox="0 0 29 29" fill="none" xmlns="http://www.w3.org/2000/svg">
<path d="M8.96875 1.86719L11.1562 7.11719C11.5391 7.99219 11.3203 9.03125 10.5547 9.63281L7.875 11.875C9.67969 15.7031 12.7969 18.8203 16.625 20.625L18.8672 17.9453C19.4688 17.1797 20.5078 16.9609 21.3828 17.3438L26.6328 19.5312C27.6719 19.9141 28.1641 21.0625 27.8906 22.1016L26.5781 26.9141C26.3047 27.8438 25.4844 28.5 24.5 28.5C10.9375 28.5 0 17.5625 0 4C0 3.01562 0.65625 2.19531 1.58594 1.92188L6.39844 0.609375C7.4375 0.335938 8.58594 0.828125 8.96875 1.86719Z" fill="#DCFC5A"/>
</svg>
