<svg width="29" height="29" viewBox="0 0 29 29" fill="none" xmlns="http://www.w3.org/2000/svg">
<path d="M20.25 14.5C20.25 15.7578 20.1406 16.9062 20.0312 18H16.3672L17.0781 15.7031C17.6797 13.6797 15.8203 11.8203 13.7969 12.4219L9.75 13.625C9.75 12.75 9.80469 11.875 9.91406 11H20.0312C20.1406 12.1484 20.25 13.2969 20.25 14.5ZM2.09375 15.8672C1.71094 15.9766 1.38281 16.1953 1.10938 16.4141C1 15.8125 1 15.1562 1 14.5C1 13.2969 1.10938 12.1484 1.4375 11H8.16406C8.05469 12.0391 8 13.0781 8 14.1172L2.09375 15.8672ZM13.6328 27.4062L15.875 19.75H19.8125C19.4844 21.7734 18.9375 23.5234 18.3359 24.9453C17.7344 26.2578 17.1328 27.1875 16.4766 27.7891C15.875 28.3359 15.3828 28.5 15 28.5C14.5625 28.5 14.0703 28.3359 13.4688 27.7891C13.5234 27.6797 13.5781 27.5156 13.6328 27.4062ZM21.7812 11H28.5078C28.8359 12.1484 29 13.2969 29 14.5C29 15.7578 28.8359 16.9062 28.5078 18H21.7812C21.8906 16.9062 22 15.7031 22 14.5C22 13.2969 21.8906 12.1484 21.7812 11ZM27.9609 9.25H21.5625C21.0156 5.80469 19.9219 2.85156 18.5547 0.992188C22.8203 2.14062 26.3203 5.20312 27.9609 9.25ZM10.1328 9.25C10.4609 7.28125 11.0078 5.53125 11.6094 4.10938C12.2109 2.79688 12.8125 1.86719 13.4688 1.26562C14.0703 0.71875 14.5625 0.5 15 0.5C15.3828 0.5 15.875 0.71875 16.4766 1.26562C17.1328 1.86719 17.7344 2.79688 18.3359 4.10938C18.9375 5.53125 19.4844 7.28125 19.8125 9.25H10.1328ZM8.38281 9.25H1.98438C3.625 5.20312 7.125 2.14062 11.3906 0.992188C10.0234 2.85156 8.92969 5.80469 8.38281 9.25ZM27.9609 19.75C26.3203 23.8516 22.8203 26.9141 18.5547 28.0625C19.9766 26.2031 21.0156 23.25 21.5625 19.75H27.9609ZM3.13281 17.3984L14.2891 14.1172C14.9453 13.8984 15.6016 14.5 15.3828 15.2109L12.1016 26.3672C11.8828 27.1328 10.8438 27.2422 10.4609 26.5312L8.92969 23.4141C8.875 23.3047 8.82031 23.25 8.76562 23.1953L3.95312 28.0078C3.29688 28.7188 2.14844 28.7188 1.49219 28.0078C0.78125 27.3516 0.78125 26.2031 1.49219 25.5469L6.30469 20.7344C6.25 20.6797 6.19531 20.625 6.08594 20.5703L2.96875 19.0391C2.25781 18.6562 2.36719 17.6172 3.13281 17.3984Z" fill="#DCFC5A"/>
</svg>
