<svg width="804" height="62" viewBox="0 0 804 62" fill="none" xmlns="http://www.w3.org/2000/svg">
<g opacity="0.6">
<path d="M402 40L402 60" stroke="white" stroke-width="4" stroke-linecap="round"/>
<path d="M382 40L382 60" stroke="white" stroke-width="2" stroke-linecap="round"/>
<path d="M362 40L362 60" stroke="white" stroke-width="4" stroke-linecap="round"/>
<path d="M342 40L342 60" stroke="white" stroke-width="2" stroke-linecap="round"/>
<path d="M322 40L322 60" stroke="white" stroke-width="4" stroke-linecap="round"/>
<path d="M302 40L302 60" stroke="white" stroke-width="2" stroke-linecap="round"/>
<path d="M282 40L282 60" stroke="white" stroke-width="4" stroke-linecap="round"/>
<path d="M262 40L262 60" stroke="white" stroke-width="2" stroke-linecap="round"/>
<path d="M242 40L242 60" stroke="white" stroke-width="4" stroke-linecap="round"/>
<path d="M222 40L222 60" stroke="white" stroke-width="2" stroke-linecap="round"/>
<path d="M202 40L202 60" stroke="white" stroke-width="4" stroke-linecap="round"/>
<path d="M182 40L182 60" stroke="white" stroke-width="2" stroke-linecap="round"/>
<path d="M162 40L162 60" stroke="white" stroke-width="4" stroke-linecap="round"/>
<path d="M142 40L142 60" stroke="white" stroke-width="2" stroke-linecap="round"/>
<path d="M122 40L122 60" stroke="white" stroke-width="4" stroke-linecap="round"/>
<path d="M102 40L102 60" stroke="white" stroke-width="2" stroke-linecap="round"/>
<path d="M82 40L82 60" stroke="white" stroke-width="4" stroke-linecap="round"/>
<path d="M62 40L62 60" stroke="white" stroke-width="2" stroke-linecap="round"/>
<path d="M42 40L42 60" stroke="white" stroke-width="4" stroke-linecap="round"/>
<path d="M22 40L22 60" stroke="white" stroke-width="2" stroke-linecap="round"/>
<path d="M2 40L2 60" stroke="white" stroke-width="4" stroke-linecap="round"/>
</g>
<g opacity="0.6">
<path d="M802 40L802 60" stroke="white" stroke-width="4" stroke-linecap="round"/>
<path d="M782 40L782 60" stroke="white" stroke-width="2" stroke-linecap="round"/>
<path d="M762 40L762 60" stroke="white" stroke-width="4" stroke-linecap="round"/>
<path d="M742 40L742 60" stroke="white" stroke-width="2" stroke-linecap="round"/>
<path d="M722 40L722 60" stroke="white" stroke-width="4" stroke-linecap="round"/>
<path d="M702 40L702 60" stroke="white" stroke-width="2" stroke-linecap="round"/>
<path d="M682 40L682 60" stroke="white" stroke-width="4" stroke-linecap="round"/>
<path d="M662 40L662 60" stroke="white" stroke-width="2" stroke-linecap="round"/>
<path d="M642 40L642 60" stroke="white" stroke-width="4" stroke-linecap="round"/>
<path d="M622 40L622 60" stroke="white" stroke-width="2" stroke-linecap="round"/>
<path d="M602 40L602 60" stroke="white" stroke-width="4" stroke-linecap="round"/>
<path d="M582 40L582 60" stroke="white" stroke-width="2" stroke-linecap="round"/>
<path d="M562 40L562 60" stroke="white" stroke-width="4" stroke-linecap="round"/>
<path d="M542 40L542 60" stroke="white" stroke-width="2" stroke-linecap="round"/>
<path d="M522 40L522 60" stroke="white" stroke-width="4" stroke-linecap="round"/>
<path d="M502 40L502 60" stroke="white" stroke-width="2" stroke-linecap="round"/>
<path d="M482 40L482 60" stroke="white" stroke-width="4" stroke-linecap="round"/>
<path d="M462 40L462 60" stroke="white" stroke-width="2" stroke-linecap="round"/>
<path d="M442 40L442 60" stroke="white" stroke-width="4" stroke-linecap="round"/>
<path d="M422 40L422 60" stroke="white" stroke-width="2" stroke-linecap="round"/>
</g>
</svg>
